<?xml version="1.0" encoding="UTF-8"?>
<!DOCTYPE svg PUBLIC "-//W3C//DTD SVG 1.1//EN" "http://www.w3.org/Graphics/SVG/1.1/DTD/svg11.dtd">
<!-- Creator: CorelDRAW 2018 (64-Bit) -->
<svg xmlns="http://www.w3.org/2000/svg" xml:space="preserve" width="0.393701in" height="0.19685in" version="1.1" style="shape-rendering:geometricPrecision; text-rendering:geometricPrecision; image-rendering:optimizeQuality; fill-rule:evenodd; clip-rule:evenodd"
viewBox="0 0 393.7 196.85"
 xmlns:xlink="http://www.w3.org/1999/xlink">
 <defs>
  <style type="text/css">
   <![CDATA[
    .fil1 {fill:#201E1E;fill-rule:nonzero}
    .fil0 {fill:#201E1E;fill-rule:nonzero}
   ]]>
  </style>
 </defs>
 <g id="Layer_x0020_1">
  <metadata id="CorelCorpID_0Corel-Layer"/>
  <g id="_1935889629808">
   <path class="fil0" d="M59.18 159.32l-35.88 0 0 -13.61 35.88 0c20.58,0 37.32,-16.74 37.32,-37.32l0 -72.22 13.61 0 0 72.22c0,28.08 -22.84,50.93 -50.93,50.93z"/>
   <polygon class="fil0" points="44.74,139.52 58.35,139.52 58.35,60.5 44.74,60.5 "/>
   <path class="fil0" d="M38.56 91.82c-9.41,9.25 -15.26,22.11 -15.26,36.31l13.61 0c0,-3.82 0.58,-7.5 1.65,-10.98l0 -25.33z"/>
   <path class="fil0" d="M83.81 46.89l0 80.51c-3.49,4.52 -8.19,8.06 -13.61,10.11l0 -90.62 13.61 0z"/>
  </g>
  <g id="_1935889627152">
   <path class="fil1" d="M161.5 93.68l-15.16 0c-2.19,0 -3.75,-0.48 -4.69,-1.46 -0.93,-0.98 -1.41,-2.55 -1.41,-4.69l0 -37.29c0,-2.19 0.48,-3.75 1.44,-4.71 0.96,-0.96 2.51,-1.44 4.65,-1.44l16.07 0c2.37,0 4.42,0.15 6.15,0.44 1.74,0.3 3.3,0.85 4.67,1.7 1.18,0.69 2.2,1.58 3.12,2.66 0.9,1.07 1.58,2.25 2.06,3.54 0.47,1.3 0.72,2.67 0.72,4.11 0,4.96 -2.48,8.6 -7.45,10.9 6.52,2.08 9.78,6.11 9.78,12.11 0,2.77 -0.72,5.28 -2.13,7.49 -1.42,2.23 -3.34,3.87 -5.75,4.92 -1.51,0.63 -3.24,1.09 -5.2,1.34 -1.96,0.27 -4.26,0.39 -6.87,0.39zm-0.75 -22.03l-10.46 0 0 14.48 10.8 0c6.8,0 10.19,-2.44 10.19,-7.34 0,-2.5 -0.88,-4.31 -2.65,-5.45 -1.75,-1.12 -4.39,-1.69 -7.88,-1.69zm-10.46 -20.02l0 12.81 9.21 0c2.5,0 4.43,-0.24 5.8,-0.71 1.37,-0.48 2.41,-1.37 3.14,-2.7 0.57,-0.94 0.85,-2.01 0.85,-3.17 0,-2.5 -0.89,-4.17 -2.68,-4.99 -1.78,-0.82 -4.5,-1.24 -8.15,-1.24l-8.16 0z"/>
   <path id="1" class="fil1" d="M222.8 51.84l-22.63 0 0 12.19 20.84 0c1.54,0 2.68,0.35 3.43,1.03 0.76,0.68 1.13,1.59 1.13,2.71 0,1.12 -0.37,2.04 -1.11,2.75 -0.75,0.7 -1.89,1.06 -3.45,1.06l-20.84 0 0 14.13 23.4 0c1.58,0 2.77,0.37 3.57,1.09 0.81,0.73 1.21,1.71 1.21,2.92 0,1.17 -0.4,2.13 -1.21,2.85 -0.8,0.73 -1.98,1.1 -3.57,1.1l-27.29 0c-2.18,0 -3.75,-0.48 -4.71,-1.45 -0.96,-0.97 -1.44,-2.54 -1.44,-4.7l0 -37.29c0,-1.44 0.22,-2.62 0.65,-3.54 0.43,-0.91 1.09,-1.58 2.01,-2 0.91,-0.42 2.08,-0.62 3.5,-0.62l26.52 0c1.6,0 2.79,0.36 3.57,1.06 0.77,0.72 1.17,1.65 1.17,2.8 0,1.18 -0.39,2.13 -1.17,2.84 -0.78,0.7 -1.96,1.06 -3.57,1.06z"/>
   <path id="2" class="fil1" d="M242.55 44.09l13.09 0c3.41,0 6.33,0.31 8.76,0.94 2.44,0.63 4.65,1.82 6.64,3.56 5.16,4.42 7.74,11.15 7.74,20.17 0,2.98 -0.25,5.69 -0.77,8.15 -0.52,2.46 -1.33,4.68 -2.4,6.65 -1.09,1.98 -2.47,3.74 -4.17,5.3 -1.33,1.19 -2.78,2.15 -4.36,2.87 -1.58,0.72 -3.28,1.23 -5.09,1.52 -1.81,0.29 -3.87,0.44 -6.14,0.44l-13.09 0c-1.83,0 -3.2,-0.28 -4.13,-0.83 -0.93,-0.56 -1.52,-1.33 -1.8,-2.33 -0.29,-1.01 -0.43,-2.31 -0.43,-3.91l0 -36.37c0,-2.16 0.48,-3.73 1.45,-4.7 0.97,-0.97 2.54,-1.45 4.7,-1.45zm3.89 7.96l0 33.67 7.62 0c1.67,0 2.98,-0.05 3.93,-0.14 0.95,-0.09 1.93,-0.31 2.94,-0.67 1.02,-0.37 1.89,-0.87 2.63,-1.52 3.36,-2.84 5.04,-7.73 5.04,-14.69 0,-4.89 -0.74,-8.56 -2.22,-11 -1.48,-2.44 -3.3,-3.98 -5.46,-4.65 -2.17,-0.66 -4.79,-0.99 -7.85,-0.99l-6.64 0z"/>
   <path id="3" class="fil1" d="M316.69 88.06l-2.37 -6.22 -20.16 0 -2.37 6.35c-0.92,2.48 -1.71,4.16 -2.37,5.02 -0.65,0.87 -1.72,1.3 -3.21,1.3 -1.26,0 -2.38,-0.46 -3.35,-1.39 -0.97,-0.92 -1.46,-1.97 -1.46,-3.14 0,-0.68 0.11,-1.39 0.33,-2.1 0.23,-0.73 0.6,-1.72 1.12,-3.01l12.67 -32.19c0.37,-0.92 0.8,-2.03 1.31,-3.32 0.51,-1.31 1.05,-2.38 1.63,-3.23 0.58,-0.85 1.33,-1.55 2.26,-2.08 0.93,-0.53 2.09,-0.8 3.46,-0.8 1.41,0 2.57,0.26 3.51,0.8 0.93,0.53 1.69,1.21 2.26,2.04 0.57,0.83 1.06,1.73 1.45,2.69 0.39,0.96 0.9,2.24 1.5,3.83l12.95 31.99c1.02,2.44 1.52,4.2 1.52,5.31 0,1.14 -0.47,2.2 -1.43,3.17 -0.96,0.96 -2.13,1.43 -3.48,1.43 -0.78,0 -1.46,-0.14 -2.03,-0.43 -0.56,-0.28 -1.03,-0.66 -1.42,-1.15 -0.38,-0.48 -0.78,-1.23 -1.22,-2.23 -0.45,-1 -0.82,-1.89 -1.15,-2.65zm-19.88 -13.77l14.81 0 -7.47 -20.44 -7.34 20.44z"/>
   <path id="4" class="fil1" d="M344.88 49.34l0 14.21 21.68 0 0 -14.21c0,-2.02 0.46,-3.54 1.37,-4.56 0.91,-1.02 2.11,-1.52 3.6,-1.52 1.5,0 2.72,0.5 3.66,1.5 0.94,1 1.41,2.53 1.41,4.58l0 39.06c0,2.06 -0.47,3.58 -1.42,4.59 -0.94,1.02 -2.17,1.52 -3.65,1.52 -1.51,0 -2.72,-0.51 -3.63,-1.54 -0.9,-1.03 -1.35,-2.55 -1.35,-4.58l0 -16.67 -21.68 0 0 16.67c0,2.06 -0.47,3.58 -1.42,4.59 -0.94,1.02 -2.17,1.52 -3.65,1.52 -1.51,0 -2.72,-0.51 -3.63,-1.54 -0.9,-1.03 -1.35,-2.55 -1.35,-4.58l0 -39.06c0,-2.03 0.45,-3.54 1.34,-4.56 0.89,-1.02 2.1,-1.52 3.64,-1.52 1.5,0 2.72,0.5 3.66,1.5 0.94,1 1.41,2.54 1.41,4.58z"/>
   <path class="fil1" d="M177.28 137.47c0,2.81 -0.73,5.34 -2.18,7.59 -1.44,2.25 -3.57,4 -6.37,5.28 -2.8,1.27 -6.12,1.9 -9.96,1.9 -4.6,0 -8.4,-0.87 -11.39,-2.6 -2.12,-1.25 -3.83,-2.92 -5.16,-5 -1.32,-2.08 -1.99,-4.11 -1.99,-6.09 0,-1.14 0.4,-2.11 1.2,-2.94 0.79,-0.81 1.8,-1.22 3.03,-1.22 1,0 1.83,0.31 2.52,0.96 0.69,0.63 1.28,1.57 1.77,2.83 0.59,1.48 1.24,2.72 1.92,3.71 0.7,1 1.66,1.82 2.91,2.47 1.26,0.64 2.9,0.97 4.94,0.97 2.79,0 5.07,-0.65 6.82,-1.96 1.75,-1.3 2.63,-2.93 2.63,-4.88 0,-1.56 -0.47,-2.81 -1.41,-3.77 -0.94,-0.97 -2.17,-1.7 -3.67,-2.22 -1.49,-0.51 -3.5,-1.05 -6,-1.63 -3.34,-0.78 -6.15,-1.7 -8.4,-2.75 -2.26,-1.06 -4.05,-2.49 -5.37,-4.3 -1.32,-1.81 -1.98,-4.06 -1.98,-6.76 0,-2.56 0.69,-4.84 2.09,-6.84 1.4,-1.99 3.43,-3.52 6.08,-4.59 2.65,-1.07 5.76,-1.61 9.35,-1.61 2.85,0 5.33,0.36 7.43,1.06 2.09,0.72 3.82,1.66 5.2,2.83 1.37,1.17 2.38,2.41 3.02,3.7 0.63,1.3 0.95,2.56 0.95,3.79 0,1.12 -0.4,2.14 -1.19,3.04 -0.79,0.9 -1.79,1.35 -2.98,1.35 -1.08,0 -1.9,-0.27 -2.46,-0.8 -0.57,-0.54 -1.17,-1.43 -1.83,-2.66 -0.86,-1.76 -1.87,-3.14 -3.06,-4.13 -1.19,-0.99 -3.09,-1.48 -5.73,-1.48 -2.43,0 -4.41,0.53 -5.9,1.61 -1.5,1.07 -2.24,2.36 -2.24,3.87 0,0.93 0.25,1.74 0.76,2.42 0.51,0.67 1.21,1.26 2.11,1.75 0.89,0.49 1.79,0.87 2.7,1.15 0.91,0.27 2.42,0.67 4.52,1.2 2.63,0.62 5.02,1.3 7.15,2.04 2.13,0.74 3.94,1.64 5.44,2.7 1.5,1.06 2.66,2.4 3.5,4.02 0.83,1.63 1.26,3.61 1.26,5.97z"/>
   <path id="1" class="fil1" d="M215.14 146.17l-2.22 -5.85 -18.96 0 -2.22 5.97c-0.87,2.33 -1.61,3.91 -2.23,4.72 -0.61,0.81 -1.61,1.23 -3.02,1.23 -1.19,0 -2.24,-0.44 -3.15,-1.3 -0.91,-0.87 -1.37,-1.86 -1.37,-2.95 0,-0.64 0.11,-1.3 0.31,-1.98 0.22,-0.69 0.56,-1.62 1.05,-2.83l11.92 -30.27c0.35,-0.87 0.75,-1.91 1.22,-3.13 0.48,-1.23 0.99,-2.24 1.53,-3.04 0.54,-0.8 1.25,-1.46 2.13,-1.95 0.88,-0.5 1.96,-0.75 3.26,-0.75 1.32,0 2.42,0.25 3.3,0.75 0.88,0.5 1.59,1.14 2.13,1.92 0.54,0.78 1,1.63 1.37,2.53 0.37,0.9 0.85,2.11 1.41,3.61l12.18 30.08c0.95,2.29 1.43,3.95 1.43,4.99 0,1.07 -0.44,2.07 -1.35,2.98 -0.9,0.9 -2,1.35 -3.27,1.35 -0.74,0 -1.38,-0.13 -1.91,-0.4 -0.52,-0.26 -0.96,-0.62 -1.33,-1.07 -0.36,-0.46 -0.74,-1.17 -1.15,-2.1 -0.43,-0.94 -0.77,-1.78 -1.07,-2.5zm-18.7 -12.95l13.93 0 -7.02 -19.21 -6.91 19.21z"/>
   <path id="2" class="fil1" d="M241.65 109.75l0 13.37 20.39 0 0 -13.37c0,-1.9 0.43,-3.33 1.29,-4.29 0.86,-0.95 1.98,-1.43 3.39,-1.43 1.41,0 2.56,0.47 3.44,1.41 0.88,0.94 1.33,2.38 1.33,4.31l0 36.73c0,1.93 -0.44,3.37 -1.33,4.32 -0.89,0.95 -2.04,1.43 -3.43,1.43 -1.42,0 -2.56,-0.48 -3.41,-1.44 -0.85,-0.97 -1.27,-2.4 -1.27,-4.31l0 -15.68 -20.39 0 0 15.68c0,1.93 -0.44,3.37 -1.33,4.32 -0.89,0.95 -2.04,1.43 -3.43,1.43 -1.43,0 -2.56,-0.48 -3.41,-1.44 -0.85,-0.97 -1.27,-2.4 -1.27,-4.31l0 -36.73c0,-1.91 0.43,-3.33 1.26,-4.29 0.83,-0.95 1.98,-1.43 3.42,-1.43 1.41,0 2.56,0.47 3.44,1.41 0.88,0.94 1.32,2.39 1.32,4.31z"/>
   <path id="3" class="fil1" d="M311.48 146.17l-2.22 -5.85 -18.96 0 -2.22 5.97c-0.87,2.33 -1.61,3.91 -2.23,4.72 -0.61,0.81 -1.61,1.23 -3.02,1.23 -1.19,0 -2.24,-0.44 -3.15,-1.3 -0.91,-0.87 -1.37,-1.86 -1.37,-2.95 0,-0.64 0.11,-1.3 0.31,-1.98 0.22,-0.69 0.56,-1.62 1.05,-2.83l11.92 -30.27c0.35,-0.87 0.75,-1.91 1.22,-3.13 0.48,-1.23 0.99,-2.24 1.53,-3.04 0.54,-0.8 1.25,-1.46 2.13,-1.95 0.88,-0.5 1.96,-0.75 3.26,-0.75 1.32,0 2.42,0.25 3.3,0.75 0.88,0.5 1.59,1.14 2.13,1.92 0.54,0.78 1,1.63 1.37,2.53 0.37,0.9 0.85,2.11 1.41,3.61l12.18 30.08c0.95,2.29 1.43,3.95 1.43,4.99 0,1.07 -0.44,2.07 -1.35,2.98 -0.9,0.9 -2,1.35 -3.27,1.35 -0.74,0 -1.38,-0.13 -1.91,-0.4 -0.52,-0.26 -0.96,-0.62 -1.33,-1.07 -0.36,-0.46 -0.74,-1.17 -1.15,-2.1 -0.43,-0.94 -0.77,-1.78 -1.07,-2.5zm-18.7 -12.95l13.93 0 -7.02 -19.21 -6.91 19.21z"/>
   <path id="4" class="fil1" d="M344.24 144.42l-7.48 -29.7 0 32.18c0,1.78 -0.4,3.11 -1.2,4 -0.79,0.89 -1.84,1.34 -3.15,1.34 -1.27,0 -2.31,-0.45 -3.12,-1.33 -0.8,-0.88 -1.2,-2.21 -1.2,-4.02l0 -36.89c0,-2.04 0.53,-3.41 1.59,-4.13 1.06,-0.7 2.5,-1.06 4.29,-1.06l2.93 0c1.76,0 3.03,0.16 3.82,0.48 0.8,0.31 1.39,0.89 1.77,1.72 0.38,0.82 0.81,2.17 1.3,4.04l6.77 25.56 6.78 -25.56c0.49,-1.87 0.92,-3.22 1.3,-4.04 0.38,-0.83 0.96,-1.4 1.76,-1.72 0.79,-0.31 2.07,-0.48 3.83,-0.48l2.92 0c1.8,0 3.23,0.36 4.3,1.06 1.05,0.72 1.58,2.08 1.58,4.13l0 36.89c0,1.78 -0.4,3.11 -1.19,4 -0.79,0.89 -1.86,1.34 -3.18,1.34 -1.25,0 -2.28,-0.45 -3.08,-1.34 -0.8,-0.89 -1.2,-2.22 -1.2,-4l0 -32.18 -7.48 29.7c-0.49,1.92 -0.88,3.34 -1.19,4.24 -0.31,0.89 -0.87,1.72 -1.7,2.46 -0.83,0.75 -1.97,1.12 -3.44,1.12 -1.11,0 -2.04,-0.24 -2.8,-0.72 -0.76,-0.48 -1.36,-1.09 -1.78,-1.83 -0.43,-0.75 -0.76,-1.56 -1,-2.46 -0.25,-0.9 -0.5,-1.84 -0.75,-2.81z"/>
  </g>
 </g>
</svg>
